<?xml version="1.0" encoding="utf-8"?><!-- Generator: Adobe Illustrator 21.1.0, SVG Export Plug-In . SVG Version: 6.00 Build 0)  --><svg xmlns="http://www.w3.org/2000/svg" xmlns:xlink="http://www.w3.org/1999/xlink" viewBox="0 0 128 128" width="64px" height="64px"><g><g><g><path d="M101.1,105.6C93.7,92.7,79.9,84,64,84h0c-15.9,0-29.7,8.7-37.1,21.6L27,109h74L101.1,105.6z" style="fill:currentColor;"/></g><g><g><g><ellipse transform="matrix(0.7071 -0.7071 0.7071 0.7071 -45.3711 102.4645)" cx="101" cy="106" rx="20" ry="20" style="fill:currentColor;"/></g><g><path d="M107.9,109h-14c-1.7,0-3-1.3-3-3s1.3-3,3-3h14c1.7,0,3,1.3,3,3S109.6,109,107.9,109z" style="fill:#FFFFFF;"/></g></g></g><g><path d="M78.8,89.7c-0.3,0-0.7-0.1-1-0.2c-4.4-1.6-9-2.5-13.8-2.5c-1.7,0-3-1.3-3-3s1.3-3,3-3c5.5,0,10.8,1,15.9,2.8c1.6,0.6,2.3,2.3,1.8,3.9C81.2,88.9,80,89.7,78.8,89.7z" style="fill:currentColor;"/></g><g><path d="M26.9,108.6c-0.5,0-1-0.1-1.5-0.4c-1.4-0.8-1.9-2.6-1.1-4.1C32.4,89.9,47.6,81,64,81c1.7,0,3,1.3,3,3s-1.3,3-3,3c-14.2,0-27.4,7.7-34.5,20.1C29,108,28,108.6,26.9,108.6z" style="fill:currentColor;"/></g><g><circle cx="64" cy="50" r="20" style="fill:#FFFFFF;"/></g><g><path d="M64,73c-12.7,0-23-10.3-23-23s10.3-23,23-23s23,10.3,23,23S76.7,73,64,73z M64,33c-9.4,0-17,7.6-17,17s7.6,17,17,17c9.4,0,17-7.6,17-17S73.4,33,64,33z" style="fill:currentColor;"/></g></g><g><g><g><path d="M100.9,116c-1.7,0-3-1.3-3-3V99c0-1.7,1.3-3,3-3s3,1.3,3,3v14C103.9,114.7,102.6,116,100.9,116z" style="fill:currentColor;"/></g></g></g></g></svg>